<svg width="20" height="21" viewBox="0 0 20 21" fill="none" xmlns="http://www.w3.org/2000/svg">
  <circle cx="10" cy="10.7273" r="10" fill="#222427" />
  <path
    d="M8.6 11.9001L6.45 9.84784C6.26667 9.67284 6.03333 9.58534 5.75 9.58534C5.46667 9.58534 5.23333 9.67284 5.05 9.84784C4.86667 10.0228 4.775 10.2456 4.775 10.516C4.775 10.7865 4.86667 11.0092 5.05 11.1842L7.9 13.9047C8.1 14.0956 8.33333 14.191 8.6 14.191C8.86667 14.191 9.1 14.0956 9.3 13.9047L14.95 8.51147C15.1333 8.33647 15.225 8.11375 15.225 7.84329C15.225 7.57284 15.1333 7.35011 14.95 7.17511C14.7667 7.00011 14.5333 6.91261 14.25 6.91261C13.9667 6.91261 13.7333 7.00011 13.55 7.17511L8.6 11.9001ZM10 19.7274C8.61667 19.7274 7.31667 19.4768 6.1 18.9757C4.88333 18.4745 3.825 17.7944 2.925 16.9353C2.025 16.0762 1.3125 15.066 0.7875 13.9047C0.2625 12.7433 0 11.5024 0 10.1819C0 8.86147 0.2625 7.62056 0.7875 6.4592C1.3125 5.29784 2.025 4.28761 2.925 3.42852C3.825 2.56943 4.88333 1.88932 6.1 1.38818C7.31667 0.887043 8.61667 0.636475 10 0.636475C11.3833 0.636475 12.6833 0.887043 13.9 1.38818C15.1167 1.88932 16.175 2.56943 17.075 3.42852C17.975 4.28761 18.6875 5.29784 19.2125 6.4592C19.7375 7.62056 20 8.86147 20 10.1819C20 11.5024 19.7375 12.7433 19.2125 13.9047C18.6875 15.066 17.975 16.0762 17.075 16.9353C16.175 17.7944 15.1167 18.4745 13.9 18.9757C12.6833 19.4768 11.3833 19.7274 10 19.7274Z"
    fill="white" />
</svg>