<svg width="129" height="43" viewBox="0 0 129 43" fill="none" xmlns="http://www.w3.org/2000/svg">
<path d="M122.639 36.1H120.299V27H122.639V30.575H123.809L125.837 27H128.307L125.759 31.485L128.294 36.1H125.824L123.809 32.395H122.639V36.1Z" fill="#222427"/>
<path d="M116.012 27C116.992 27 117.733 27.2557 118.235 27.767C118.747 28.2697 119.002 29.0107 119.002 29.99V33.11C119.002 34.0893 118.747 34.8347 118.235 35.346C117.733 35.8487 116.992 36.1 116.012 36.1H110.942V27H116.012ZM116.662 29.99C116.662 29.21 116.272 28.82 115.492 28.82H113.282V34.28H115.492C116.272 34.28 116.662 33.89 116.662 33.11V29.99Z" fill="#222427"/>
<path d="M103.338 36.1H100.803L104.248 27H106.848L110.293 36.1H107.758L107.173 34.475H103.923L103.338 36.1ZM104.508 32.785H106.588L105.548 29.73L104.508 32.785Z" fill="#222427"/>
<path d="M95.61 32.46V30.64H100.94V32.46H95.61Z" fill="#222427"/>
<path d="M86.8985 27H89.3685L91.5135 31.42L93.6585 27H96.1285L92.6835 33.695V36.1H90.3435V33.695L86.8985 27Z" fill="#222427"/>
<path d="M87.1565 35.905C85.1285 36.1217 83.2651 36.23 81.5665 36.23C80.7171 36.23 80.0931 36.0307 79.6945 35.632C79.2958 35.2333 79.0965 34.6093 79.0965 33.76V29.6C79.0965 28.69 79.3001 28.0313 79.7075 27.624C80.1235 27.208 80.7864 27 81.6964 27H86.3764V28.82H82.2164C81.6964 28.82 81.4365 29.08 81.4365 29.6V33.76C81.4365 33.9593 81.4928 34.1197 81.6054 34.241C81.7268 34.3537 81.8871 34.41 82.0864 34.41C83.0831 34.41 83.9931 34.3883 84.8165 34.345V32.46H83.1264V30.9H87.1565V35.905Z" fill="#222427"/>
<path d="M70 27H75.46C76.37 27 77.0287 27.208 77.436 27.624C77.852 28.0313 78.06 28.69 78.06 29.6V30.77C78.06 31.4893 77.9387 32.0483 77.696 32.447C77.462 32.8457 77.085 33.11 76.565 33.24L78.19 36.1H75.655L74.16 33.37H72.34V36.1H70V27ZM75.72 29.6C75.72 29.08 75.46 28.82 74.94 28.82H72.34V31.55H74.94C75.46 31.55 75.72 31.29 75.72 30.77V29.6Z" fill="#222427"/>
<path d="M68.963 36.1H61.748V27H68.963V28.82H64.088V30.575H67.923V32.395H64.088V34.28H68.963V36.1Z" fill="#222427"/>
<path d="M60.182 36.1H57.712L54.592 30.64V36.1H52.252V27H54.722L57.842 32.46V27H60.182V36.1Z" fill="#222427"/>
<path d="M51.215 36.1H44V27H51.215V28.82H46.34V30.575H50.175V32.395H46.34V34.28H51.215V36.1Z" fill="#222427"/>
<path fill-rule="evenodd" clip-rule="evenodd" d="M18.688 0.0299822C23.3808 -0.207925 27.6725 0.970012 31.563 3.56367C35.5193 6.49321 38.0033 10.3766 39.0151 15.2141C38.134 14.6314 37.1963 14.1393 36.2163 13.7448C33.548 8.11901 29.1045 4.93527 22.8862 4.19356C18.296 3.85302 13.9812 4.78591 9.94141 6.99238C9.17637 7.44021 8.41852 7.89531 7.66748 8.35713C6.09988 7.78386 4.71179 6.80608 3.64404 5.52315C8.14143 2.28527 13.1559 0.454018 18.688 0.0299822Z" fill="#222427"/>
<path fill-rule="evenodd" clip-rule="evenodd" d="M0.285167 5.34814C1.02268 6.98551 2.18879 8.23297 3.7837 9.09131C6.34776 10.3818 9.11919 11.211 11.9707 11.5405C15.3761 11.9091 18.7812 12.2591 22.1865 12.5903C25.6654 12.9088 29.0947 13.6367 32.4028 14.7593C38.4863 16.9518 40.9935 21.2553 39.9248 27.6694C39.4817 31.476 38.0355 34.8342 35.5864 37.7451C32.7735 40.7073 29.3097 42.2121 25.1953 42.2588C22.6136 42.4254 20.0242 42.0924 17.5684 41.2788C13.5099 39.7814 11.7492 36.8777 12.2857 32.5674C12.8559 33.9503 13.88 35.0981 15.1895 35.8213C18.3942 37.454 21.7762 37.9904 25.3355 37.4307C26.891 37.2101 28.3752 36.6353 29.6738 35.751C30.5958 35.0164 31.2878 34.0328 31.668 32.917C31.8359 32.3712 31.9873 31.8234 32.1226 31.2729C26.829 31.796 21.4901 31.6314 16.2388 30.7832C14.0642 30.4694 11.9727 29.7322 10.0816 28.6138C7.59052 26.8831 6.36574 24.4927 6.40773 21.4419C7.12915 22.4707 8.13975 23.262 9.31153 23.7158C10.7756 24.3208 12.3005 24.7666 13.8599 25.0454C17.7024 25.6891 21.5824 26.0863 25.4756 26.2349C27.6919 26.3002 29.9072 26.3584 32.1226 26.4097C31.8244 24.9991 31.0606 23.7299 29.9536 22.8062C28.9429 22 27.8086 21.3621 26.5947 20.917C23.695 19.9581 20.6856 19.3702 17.6382 19.1675C14.6671 18.9622 11.7053 18.659 8.75196 18.2578C6.95978 17.9791 5.23081 17.3873 3.64405 16.5088C1.42871 15.0534 0.227108 12.9889 0.0400496 10.3159C-0.0580663 8.65591 0.0242661 6.99046 0.285167 5.34814Z" fill="#222427"/>
</svg>
